<svg xmlns="http://www.w3.org/2000/svg" xmlns:xlink="http://www.w3.org/1999/xlink" contentStyleType="text/css" data-diagram-type="DESCRIPTION" height="459px" preserveAspectRatio="none" style="width:1083px;height:459px;background:#FFFFFF;" version="1.1" viewBox="0 0 1083 459" width="1083px" zoomAndPan="magnify"><?plantuml 1.2026.4beta2?><defs/><g><!--cluster Sistema de Gest?o das Olimp?adas (SGO)--><g class="cluster" data-qualified-name="Sistema de Gest.o das Olimp.adas .SGO." data-source-line="7" id="ent0004"><rect fill="none" height="320" rx="2.5" ry="2.5" style="stroke:#181818;stroke-width:1;" width="559.66" x="152.08" y="7"/><text fill="#000000" font-family="sans-serif" font-size="14" font-weight="700" lengthAdjust="spacing" textLength="324.6318" x="269.5941" y="21.9951">Sistema de Gest&#227;o das Olimp&#237;adas (SGO)</text></g><!--entity UC1--><g class="entity" data-qualified-name="Sistema de Gest.o das Olimp.adas .SGO..UC1" data-source-line="8" id="ent0005"><ellipse cx="282.5737" cy="148.0047" fill="#F1F1F1" rx="91.3737" ry="20.6747" style="stroke:#181818;stroke-width:0.5;"/><text fill="#000000" font-family="sans-serif" font-size="14" lengthAdjust="spacing" textLength="156.8438" x="204.1519" y="152.6532">Cadastrar Competi&#231;&#227;o</text></g><!--entity UC2--><g class="entity" data-qualified-name="Sistema de Gest.o das Olimp.adas .SGO..UC2" data-source-line="9" id="ent0006"><ellipse cx="282.5711" cy="293.9982" fill="#F1F1F1" rx="71.8911" ry="16.7782" style="stroke:#181818;stroke-width:0.5;"/><text fill="#000000" font-family="sans-serif" font-size="14" lengthAdjust="spacing" textLength="111.1045" x="227.0188" y="298.6466">Inscrever Atleta</text></g><!--entity UC3--><g class="entity" data-qualified-name="Sistema de Gest.o das Olimp.adas .SGO..UC3" data-source-line="10" id="ent0007"><ellipse cx="633.8508" cy="147.9982" fill="#F1F1F1" rx="61.8908" ry="14.7782" style="stroke:#181818;stroke-width:0.5;"/><text fill="#000000" font-family="sans-serif" font-size="14" lengthAdjust="spacing" textLength="85.0459" x="591.3279" y="152.6466">Alocar Local</text></g><!--entity UC4--><g class="entity" data-qualified-name="Sistema de Gest.o das Olimp.adas .SGO..UC4" data-source-line="11" id="ent0008"><ellipse cx="282.5685" cy="222.9997" fill="#F1F1F1" rx="86.4485" ry="19.6897" style="stroke:#181818;stroke-width:0.5;"/><text fill="#000000" font-family="sans-serif" font-size="14" lengthAdjust="spacing" textLength="145.6533" x="209.7418" y="227.6481">Registrar Resultados</text></g><!--entity UC5--><g class="entity" data-qualified-name="Sistema de Gest.o das Olimp.adas .SGO..UC5" data-source-line="12" id="ent0009"><ellipse cx="282.5739" cy="66.9988" fill="#F1F1F1" rx="114.4939" ry="25.2988" style="stroke:#181818;stroke-width:0.5;"/><text fill="#000000" font-family="sans-serif" font-size="14" lengthAdjust="spacing" textLength="207.5664" x="178.7906" y="71.6472">Gerar Relat&#243;rios de Medalhas</text></g><!--entity admin--><g class="entity" data-qualified-name="admin" data-source-line="4" id="ent0002"><ellipse cx="55.54" cy="118.35" fill="#F1F1F1" rx="8" ry="8" style="stroke:#181818;stroke-width:0.5;"/><path d="M55.54,126.35 L55.54,153.35 M42.54,134.35 L68.54,134.35 M55.54,153.35 L42.54,168.35 M55.54,153.35 L68.54,168.35" fill="none" style="stroke:#181818;stroke-width:0.5;"/><text fill="#000000" font-family="sans-serif" font-size="14" lengthAdjust="spacing" textLength="99.0801" x="6" y="182.8451">Administrador</text></g><!--entity atleta--><g class="entity" data-qualified-name="atleta" data-source-line="5" id="ent0003"><ellipse cx="55.5388" cy="264.35" fill="#F1F1F1" rx="8" ry="8" style="stroke:#181818;stroke-width:0.5;"/><path d="M55.5388,272.35 L55.5388,299.35 M42.5388,280.35 L68.5388,280.35 M55.5388,299.35 L42.5388,314.35 M55.5388,299.35 L68.5388,314.35" fill="none" style="stroke:#181818;stroke-width:0.5;"/><text fill="#000000" font-family="sans-serif" font-size="14" lengthAdjust="spacing" textLength="41.6377" x="34.72" y="328.8451">Atleta</text></g><g class="entity" data-qualified-name="GMN15" data-source-line="27" id="ent0016"><path d="M540.79,403.86 L540.79,444.1256 L726.9243,444.1256 L726.9243,413.86 L716.9243,403.86 L540.79,403.86" fill="#FEFFDD" style="stroke:#181818;stroke-width:0.5;"/><path d="M716.9243,403.86 L716.9243,413.86 L726.9243,413.86 L716.9243,403.86" fill="#FEFFDD" style="stroke:#181818;stroke-width:1;"/><text fill="#000000" font-family="sans-serif" font-size="13" lengthAdjust="spacing" textLength="165.1343" x="546.79" y="420.9269">Atleta representa apenas</text><text fill="#000000" font-family="sans-serif" font-size="13" lengthAdjust="spacing" textLength="162.1128" x="546.79" y="436.0597">um pa&#237;s por modalidade.</text></g><g class="entity" data-qualified-name="GMN18" data-source-line="28" id="ent0019"><path d="M806.64,127.86 L806.64,144 L695.93,148 L806.64,152 L806.64,168.1256 A0,0 0 0 0 806.64,168.1256 L1068.6542,168.1256 A0,0 0 0 0 1068.6542,168.1256 L1068.6542,137.86 L1058.6542,127.86 L806.64,127.86 A0,0 0 0 0 806.64,127.86" fill="#FEFFDD" style="stroke:#181818;stroke-width:0.5;"/><path d="M1058.6542,127.86 L1058.6542,137.86 L1068.6542,137.86 L1058.6542,127.86" fill="#FEFFDD" style="stroke:#181818;stroke-width:0.5;"/><text fill="#000000" font-family="sans-serif" font-size="13" lengthAdjust="spacing" textLength="172.085" x="812.64" y="144.9269">Evitar conflitos de hor&#225;rio.</text><text fill="#000000" font-family="sans-serif" font-size="13" lengthAdjust="spacing" textLength="241.0142" x="812.64" y="160.0597">Um local = uma competi&#231;&#227;o por vez.</text></g><g class="entity" data-qualified-name="GMN21" data-source-line="29" id="ent0022"><path d="M522.07,343.43 L522.07,368.5628 L745.6428,368.5628 L745.6428,353.43 L735.6428,343.43 L522.07,343.43" fill="#FEFFDD" style="stroke:#181818;stroke-width:0.5;"/><path d="M735.6428,343.43 L735.6428,353.43 L745.6428,353.43 L735.6428,343.43" fill="#FEFFDD" style="stroke:#181818;stroke-width:1;"/><text fill="#000000" font-family="sans-serif" font-size="13" lengthAdjust="spacing" textLength="202.5728" x="528.07" y="360.4969">Determinar 1&#186;, 2&#186; e 3&#186; lugares.</text></g><!--link admin to UC1--><g class="link" data-entity-1="ent0002" data-entity-2="ent0005" data-link-type="dependency" data-source-line="16" id="lnk10"><path d="M105.37,148 C130.45,148 155.82,148 185.11,148" fill="none" id="admin-to-UC1" style="stroke:#181818;stroke-width:1;"/><polygon fill="#181818" points="191.11,148,182.11,144,186.11,148,182.11,152,191.11,148" style="stroke:#181818;stroke-width:1;"/></g><!--link admin to UC4--><g class="link" data-entity-1="ent0002" data-entity-2="ent0008" data-link-type="dependency" data-source-line="17" id="lnk11"><path d="M105.57,170.78 C118,176.14 131.41,181.57 144.08,186 C168.93,194.68 191.0895,201.0441 215.2895,207.2741" fill="none" id="admin-to-UC4" style="stroke:#181818;stroke-width:1;"/><polygon fill="#181818" points="221.1,208.77,213.3814,202.6525,216.2579,207.5235,211.3869,210.3999,221.1,208.77" style="stroke:#181818;stroke-width:1;"/></g><!--link admin to UC5--><g class="link" data-entity-1="ent0002" data-entity-2="ent0009" data-link-type="dependency" data-source-line="18" id="lnk12"><path d="M105.24,125.76 C117.79,120.34 131.35,114.74 144.08,110 C165.88,101.88 184.2476,95.7619 206.1176,89.0019" fill="none" id="admin-to-UC5" style="stroke:#181818;stroke-width:1;"/><polygon fill="#181818" points="211.85,87.23,202.0701,86.0662,207.073,88.7066,204.4327,93.7094,211.85,87.23" style="stroke:#181818;stroke-width:1;"/></g><!--link atleta to UC2--><g class="link" data-entity-1="ent0003" data-entity-2="ent0006" data-link-type="dependency" data-source-line="21" id="lnk13"><path d="M76.51,294 C106.25,294 157.68,294 204.21,294" fill="none" id="atleta-to-UC2" style="stroke:#181818;stroke-width:1;"/><polygon fill="#181818" points="210.21,294,201.21,290,205.21,294,201.21,298,210.21,294" style="stroke:#181818;stroke-width:1;"/></g><!--link UC1 to UC3--><g class="link" data-entity-1="ent0005" data-entity-2="ent0007" data-link-type="dependency" data-source-line="24" id="lnk14"><path d="M374.43,148 C436.49,148 511.03,148 565.59,148" fill="none" id="UC1-to-UC3" style="stroke:#181818;stroke-width:1;stroke-dasharray:7,7;"/><polygon fill="#181818" points="571.59,148,562.59,144,566.59,148,562.59,152,571.59,148" style="stroke:#181818;stroke-width:1;"/><text fill="#000000" font-family="sans-serif" font-size="13" lengthAdjust="spacing" textLength="63.0068" x="428.07" y="144.0669">&#171;include&#187;</text></g><!--link UC2 to GMN15--><g class="link" data-entity-1="ent0006" data-entity-2="ent0016" data-link-type="association" data-source-line="27" id="lnk17"><path d="M304.68,310.25 C331.61,330.17 380.31,363.55 427.07,382 C462.94,396.15 504.29,405.77 540.47,412.2" fill="none" id="UC2-GMN15" style="stroke:#181818;stroke-width:1;stroke-dasharray:7,7;"/></g><!--link UC4 to GMN21--><g class="link" data-entity-1="ent0008" data-entity-2="ent0022" data-link-type="association" data-source-line="29" id="lnk23"><path d="M337.7,238.49 C356.74,244.51 378.1,251.9 397.07,260 C455.04,284.75 463.39,303.97 522.07,327 C538.08,333.28 555.92,338.63 572.52,342.96" fill="none" id="UC4-GMN21" style="stroke:#181818;stroke-width:1;stroke-dasharray:7,7;"/></g><?plantuml-src RLB1QXin4BthAmPVaa2p4DkvbDGGd68CRGCnlkKoIEErY5PQf5b3M_enfOUUSWgzv9ZziOnsjyLBgeEGD6_Ul7aQHpi63X1jkMSmDf9c6xnA3zRN6B626lK3bhJXhuuWXz6NZfH2pI72vDfKrjl44Ks84y04c5_-XTaHO__U7PKQ266oaJIg40p1YXAtlm8OmTqwMzNj8-RpwMPrUpQ1xmfaDOaq9abSvfXKZB0CLKrisz-It1NPBY_6sBLFEjA18Xn9sIwdOzIr2rheFidk1iHiZBYZqlOrxoWrZgNTD23dO-IAUfH3Rf-Y3Iat-9aCkZt-JRbKFvGwWRLd0OlwFoIe02CpLMSad9ylkgwER_FHxVA_LBtRlUa3S9g1MPYMByQAF8kuqxNNhZ6KpfIKWQB8o1cyXwihsqSMYvpt9R18ppCXzBh9sTAcF4Kg8tPDUYhR9-5MFZ0D8nLskR3GzO84NKTAEHcm9e_ftZTvoDf78PU9gO8OPGqQAjxGP5KV3pRNrS7ldENUt7s8xKznkhZtsmhoLphu08sCbZwQZux-GD_Uyiw5zuR4F_5Kk2zUdj_1zEKP26QokwP4aLoy0W00?></g></svg>