<svg xmlns="http://www.w3.org/2000/svg" xmlns:xlink="http://www.w3.org/1999/xlink" contentStyleType="text/css" data-diagram-type="CLASS" height="518px" preserveAspectRatio="none" style="width:1289px;height:518px;background:#FFFFFF;" version="1.1" viewBox="0 0 1289 518" width="1289px" zoomAndPan="magnify"><?plantuml 1.2026.4beta2?><defs/><g><!--cluster GestaoDeParticipantes--><g class="cluster" data-qualified-name="GestaoDeParticipantes" data-source-line="4" id="ent0002"><path d="M992.15,192.7 L1174.5006,192.7 A3.75,3.75 0 0 1 1177.0006,195.2 L1184.0006,214.9969 L1272.06,214.9969 A2.5,2.5 0 0 1 1274.56,217.4969 L1274.56,486.2 A2.5,2.5 0 0 1 1272.06,488.7 L992.15,488.7 A2.5,2.5 0 0 1 989.65,486.2 L989.65,195.2 A2.5,2.5 0 0 1 992.15,192.7" fill="none" style="stroke:#000000;stroke-width:1.5;"/><line style="stroke:#000000;stroke-width:1.5;" x1="989.65" x2="1184.0006" y1="214.9969" y2="214.9969"/><text fill="#000000" font-family="sans-serif" font-size="14" font-weight="700" lengthAdjust="spacing" textLength="181.3506" x="993.65" y="207.6951">GestaoDeParticipantes</text></g><!--cluster GestaoDeEventos--><g class="cluster" data-qualified-name="GestaoDeEventos" data-source-line="19" id="ent0005"><path d="M8.5,77.7 L148.4883,77.7 A3.75,3.75 0 0 1 150.9883,80.2 L157.9883,99.9969 L829.85,99.9969 A2.5,2.5 0 0 1 832.35,102.4969 L832.35,346.2 A2.5,2.5 0 0 1 829.85,348.7 L8.5,348.7 A2.5,2.5 0 0 1 6,346.2 L6,80.2 A2.5,2.5 0 0 1 8.5,77.7" fill="none" style="stroke:#000000;stroke-width:1.5;"/><line style="stroke:#000000;stroke-width:1.5;" x1="6" x2="157.9883" y1="99.9969" y2="99.9969"/><text fill="#000000" font-family="sans-serif" font-size="14" font-weight="700" lengthAdjust="spacing" textLength="138.9883" x="10" y="92.6951">GestaoDeEventos</text></g><!--cluster GestaoDeResultados--><g class="cluster" data-qualified-name="GestaoDeResultados" data-source-line="39" id="ent0009"><path d="M352.03,372.7 L516.7097,372.7 A3.75,3.75 0 0 1 519.2097,375.2 L526.2097,394.9969 L838.15,394.9969 A2.5,2.5 0 0 1 840.65,397.4969 L840.65,501.2 A2.5,2.5 0 0 1 838.15,503.7 L352.03,503.7 A2.5,2.5 0 0 1 349.53,501.2 L349.53,375.2 A2.5,2.5 0 0 1 352.03,372.7" fill="none" style="stroke:#000000;stroke-width:1.5;"/><line style="stroke:#000000;stroke-width:1.5;" x1="349.53" x2="526.2097" y1="394.9969" y2="394.9969"/><text fill="#000000" font-family="sans-serif" font-size="14" font-weight="700" lengthAdjust="spacing" textLength="163.6797" x="353.53" y="387.6951">GestaoDeResultados</text></g><!--class Pa?s--><g class="entity" data-qualified-name="GestaoDeParticipantes.Pa.s" data-source-line="5" id="ent0003"><rect fill="#F1F1F1" height="129.4844" rx="2.5" ry="2.5" style="stroke:#181818;stroke-width:0.5;" width="252.9053" x="1005.65" y="227.96"/><ellipse cx="1113.7501" cy="243.96" fill="#ADD1B2" rx="11" ry="11" style="stroke:#181818;stroke-width:1;"/><path d="M1116.7188,249.6006 Q1116.1407,249.8975 1115.5001,250.0381 Q1114.8595,250.1944 1114.1563,250.1944 Q1111.6563,250.1944 1110.3282,248.5538 Q1109.0157,246.8975 1109.0157,243.7725 Q1109.0157,240.6475 1110.3282,238.9913 Q1111.6563,237.335 1114.1563,237.335 Q1114.8595,237.335 1115.5001,237.4913 Q1116.1563,237.6475 1116.7188,237.9444 L1116.7188,240.6631 Q1116.0938,240.085 1115.5001,239.8194 Q1114.9063,239.5381 1114.2813,239.5381 Q1112.9376,239.5381 1112.2501,240.6163 Q1111.5626,241.6788 1111.5626,243.7725 Q1111.5626,245.8663 1112.2501,246.9444 Q1112.9376,248.0069 1114.2813,248.0069 Q1114.9063,248.0069 1115.5001,247.7413 Q1116.0938,247.46 1116.7188,246.8819 L1116.7188,249.6006 Z " fill="#000000"/><text fill="#000000" font-family="sans-serif" font-size="14" lengthAdjust="spacing" textLength="28.2051" x="1134.2501" y="248.8067">Pa&#237;s</text><line style="stroke:#181818;stroke-width:0.5;" x1="1006.65" x2="1257.5553" y1="259.96" y2="259.96"/><text fill="#000000" font-family="sans-serif" font-size="14" lengthAdjust="spacing" textLength="95.6895" x="1011.65" y="276.9551">-nome: String</text><text fill="#000000" font-family="sans-serif" font-size="14" lengthAdjust="spacing" textLength="167.1455" x="1011.65" y="293.252">-medalhasOuro: Integer</text><text fill="#000000" font-family="sans-serif" font-size="14" lengthAdjust="spacing" textLength="169.7773" x="1011.65" y="309.5489">-medalhasPrata: Integer</text><text fill="#000000" font-family="sans-serif" font-size="14" lengthAdjust="spacing" textLength="181.6924" x="1011.65" y="325.8457">-medalhasBronze: Integer</text><line style="stroke:#181818;stroke-width:0.5;" x1="1006.65" x2="1257.5553" y1="333.1475" y2="333.1475"/><text fill="#000000" font-family="sans-serif" font-size="14" lengthAdjust="spacing" textLength="240.9053" x="1011.65" y="350.1426">+atualizarQuadroMedalhas(): void</text></g><!--class Atleta--><g class="entity" data-qualified-name="GestaoDeParticipantes.Atleta" data-source-line="13" id="ent0004"><rect fill="#F1F1F1" height="80.5938" rx="2.5" ry="2.5" style="stroke:#181818;stroke-width:0.5;" width="145.9434" x="1059.13" y="392.4"/><ellipse cx="1107.0328" cy="408.4" fill="#ADD1B2" rx="11" ry="11" style="stroke:#181818;stroke-width:1;"/><path d="M1110.0016,414.0406 Q1109.4235,414.3375 1108.7828,414.4781 Q1108.1422,414.6344 1107.4391,414.6344 Q1104.9391,414.6344 1103.611,412.9938 Q1102.2985,411.3375 1102.2985,408.2125 Q1102.2985,405.0875 1103.611,403.4313 Q1104.9391,401.775 1107.4391,401.775 Q1108.1422,401.775 1108.7828,401.9313 Q1109.4391,402.0875 1110.0016,402.3844 L1110.0016,405.1031 Q1109.3766,404.525 1108.7828,404.2594 Q1108.1891,403.9781 1107.5641,403.9781 Q1106.2203,403.9781 1105.5328,405.0563 Q1104.8453,406.1188 1104.8453,408.2125 Q1104.8453,410.3063 1105.5328,411.3844 Q1106.2203,412.4469 1107.5641,412.4469 Q1108.1891,412.4469 1108.7828,412.1813 Q1109.3766,411.9 1110.0016,411.3219 L1110.0016,414.0406 Z " fill="#000000"/><text fill="#000000" font-family="sans-serif" font-size="14" lengthAdjust="spacing" textLength="41.6377" x="1127.5328" y="413.2467">Atleta</text><line style="stroke:#181818;stroke-width:0.5;" x1="1060.13" x2="1204.0734" y1="424.4" y2="424.4"/><text fill="#000000" font-family="sans-serif" font-size="14" lengthAdjust="spacing" textLength="95.6895" x="1065.13" y="441.3951">-nome: String</text><text fill="#000000" font-family="sans-serif" font-size="14" lengthAdjust="spacing" textLength="133.9434" x="1065.13" y="457.692">-passaporte: String</text><line style="stroke:#181818;stroke-width:0.5;" x1="1060.13" x2="1204.0734" y1="464.9938" y2="464.9938"/></g><!--class Local--><g class="entity" data-qualified-name="GestaoDeEventos.Local" data-source-line="20" id="ent0006"><rect fill="#F1F1F1" height="96.8906" rx="2.5" ry="2.5" style="stroke:#181818;stroke-width:0.5;" width="442.5137" x="373.83" y="112.25"/><ellipse cx="572.5712" cy="128.25" fill="#ADD1B2" rx="11" ry="11" style="stroke:#181818;stroke-width:1;"/><path d="M575.54,133.8906 Q574.9618,134.1875 574.3212,134.3281 Q573.6806,134.4844 572.9775,134.4844 Q570.4775,134.4844 569.1493,132.8438 Q567.8368,131.1875 567.8368,128.0625 Q567.8368,124.9375 569.1493,123.2813 Q570.4775,121.625 572.9775,121.625 Q573.6806,121.625 574.3212,121.7813 Q574.9775,121.9375 575.54,122.2344 L575.54,124.9531 Q574.915,124.375 574.3212,124.1094 Q573.7275,123.8281 573.1025,123.8281 Q571.7587,123.8281 571.0712,124.9063 Q570.3837,125.9688 570.3837,128.0625 Q570.3837,130.1563 571.0712,131.2344 Q571.7587,132.2969 573.1025,132.2969 Q573.7275,132.2969 574.3212,132.0313 Q574.915,131.75 575.54,131.1719 L575.54,133.8906 Z " fill="#000000"/><text fill="#000000" font-family="sans-serif" font-size="14" lengthAdjust="spacing" textLength="36.5313" x="593.0712" y="133.0967">Local</text><line style="stroke:#181818;stroke-width:0.5;" x1="374.83" x2="815.3437" y1="144.25" y2="144.25"/><text fill="#000000" font-family="sans-serif" font-size="14" lengthAdjust="spacing" textLength="95.6895" x="379.83" y="161.2451">-nome: String</text><text fill="#000000" font-family="sans-serif" font-size="14" lengthAdjust="spacing" textLength="144.874" x="379.83" y="177.542">-capacidade: Integer</text><line style="stroke:#181818;stroke-width:0.5;" x1="374.83" x2="815.3437" y1="184.8438" y2="184.8438"/><text fill="#000000" font-family="sans-serif" font-size="14" lengthAdjust="spacing" textLength="430.5137" x="379.83" y="201.8389">+verificarDisponibilidade(data: Date, horario: Time): Boolean</text></g><!--class Competi??o--><g class="entity" data-qualified-name="GestaoDeEventos.Competi..o" data-source-line="26" id="ent0007"><rect fill="#F1F1F1" height="113.1875" rx="2.5" ry="2.5" style="stroke:#181818;stroke-width:0.5;" width="211.5273" x="22" y="219.11"/><ellipse cx="81.6641" cy="235.11" fill="#ADD1B2" rx="11" ry="11" style="stroke:#181818;stroke-width:1;"/><path d="M84.6328,240.7506 Q84.0547,241.0475 83.4141,241.1881 Q82.7734,241.3444 82.0703,241.3444 Q79.5703,241.3444 78.2422,239.7038 Q76.9297,238.0475 76.9297,234.9225 Q76.9297,231.7975 78.2422,230.1413 Q79.5703,228.485 82.0703,228.485 Q82.7734,228.485 83.4141,228.6413 Q84.0703,228.7975 84.6328,229.0944 L84.6328,231.8131 Q84.0078,231.235 83.4141,230.9694 Q82.8203,230.6881 82.1953,230.6881 Q80.8516,230.6881 80.1641,231.7663 Q79.4766,232.8288 79.4766,234.9225 Q79.4766,237.0163 80.1641,238.0944 Q80.8516,239.1569 82.1953,239.1569 Q82.8203,239.1569 83.4141,238.8913 Q84.0078,238.61 84.6328,238.0319 L84.6328,240.7506 Z " fill="#000000"/><text fill="#000000" font-family="sans-serif" font-size="14" lengthAdjust="spacing" textLength="83.6992" x="102.1641" y="239.9567">Competi&#231;&#227;o</text><line style="stroke:#181818;stroke-width:0.5;" x1="23" x2="232.5273" y1="251.11" y2="251.11"/><text fill="#000000" font-family="sans-serif" font-size="14" lengthAdjust="spacing" textLength="176.5449" x="28" y="268.1051">-nomeModalidade: String</text><text fill="#000000" font-family="sans-serif" font-size="14" lengthAdjust="spacing" textLength="79.2148" x="28" y="284.402">-data: Date</text><text fill="#000000" font-family="sans-serif" font-size="14" lengthAdjust="spacing" textLength="98.8955" x="28" y="300.6989">-horario: Time</text><line style="stroke:#181818;stroke-width:0.5;" x1="23" x2="232.5273" y1="308.0006" y2="308.0006"/><text fill="#000000" font-family="sans-serif" font-size="14" lengthAdjust="spacing" textLength="199.5273" x="28" y="324.9957">+validarAlocacao(): Boolean</text></g><!--class Inscricao--><g class="entity" data-qualified-name="GestaoDeEventos.Inscricao" data-source-line="33" id="ent0008"><rect fill="#F1F1F1" height="88.8594" rx="2.5" ry="2.5" style="stroke:#181818;stroke-width:0.5;" width="319.4736" x="435.35" y="244.27"/><ellipse cx="551.3319" cy="264.4028" fill="#ADD1B2" rx="11" ry="11" style="stroke:#181818;stroke-width:1;"/><path d="M554.3007,270.0434 Q553.7226,270.3403 553.0819,270.4809 Q552.4413,270.6372 551.7382,270.6372 Q549.2382,270.6372 547.9101,268.9966 Q546.5976,267.3403 546.5976,264.2153 Q546.5976,261.0903 547.9101,259.4341 Q549.2382,257.7778 551.7382,257.7778 Q552.4413,257.7778 553.0819,257.9341 Q553.7382,258.0903 554.3007,258.3872 L554.3007,261.1059 Q553.6757,260.5278 553.0819,260.2622 Q552.4882,259.9809 551.8632,259.9809 Q550.5194,259.9809 549.8319,261.0591 Q549.1444,262.1216 549.1444,264.2153 Q549.1444,266.3091 549.8319,267.3872 Q550.5194,268.4497 551.8632,268.4497 Q552.4882,268.4497 553.0819,268.1841 Q553.6757,267.9028 554.3007,267.3247 L554.3007,270.0434 Z " fill="#000000"/><text fill="#000000" font-family="sans-serif" font-size="12" font-style="italic" lengthAdjust="spacing" textLength="83.0098" x="569.8319" y="260.4087">&#171;Association&#187;</text><text fill="#000000" font-family="sans-serif" font-size="14" lengthAdjust="spacing" textLength="62.4805" x="580.0966" y="276.2339">Inscricao</text><line style="stroke:#181818;stroke-width:0.5;" x1="436.35" x2="753.8236" y1="284.5356" y2="284.5356"/><text fill="#000000" font-family="sans-serif" font-size="14" lengthAdjust="spacing" textLength="141.6953" x="441.35" y="301.5307">-dataInscricao: Date</text><line style="stroke:#181818;stroke-width:0.5;" x1="436.35" x2="753.8236" y1="308.8325" y2="308.8325"/><text fill="#000000" font-family="sans-serif" font-size="14" lengthAdjust="spacing" textLength="307.4736" x="441.35" y="325.8276">+validarPaisUnicoPorModalidade(): Boolean</text></g><!--class Resultado--><g class="entity" data-qualified-name="GestaoDeResultados.Resultado" data-source-line="40" id="ent0010"><rect fill="#F1F1F1" height="80.5938" rx="2.5" ry="2.5" style="stroke:#181818;stroke-width:0.5;" width="459.125" x="365.53" y="407.4"/><ellipse cx="555.8835" cy="423.4" fill="#ADD1B2" rx="11" ry="11" style="stroke:#181818;stroke-width:1;"/><path d="M558.8523,429.0406 Q558.2741,429.3375 557.6335,429.4781 Q556.9929,429.6344 556.2898,429.6344 Q553.7898,429.6344 552.4616,427.9938 Q551.1491,426.3375 551.1491,423.2125 Q551.1491,420.0875 552.4616,418.4313 Q553.7898,416.775 556.2898,416.775 Q556.9929,416.775 557.6335,416.9313 Q558.2898,417.0875 558.8523,417.3844 L558.8523,420.1031 Q558.2273,419.525 557.6335,419.2594 Q557.0398,418.9781 556.4148,418.9781 Q555.071,418.9781 554.3835,420.0563 Q553.696,421.1188 553.696,423.2125 Q553.696,425.3063 554.3835,426.3844 Q555.071,427.4469 556.4148,427.4469 Q557.0398,427.4469 557.6335,427.1813 Q558.2273,426.9 558.8523,426.3219 L558.8523,429.0406 Z " fill="#000000"/><text fill="#000000" font-family="sans-serif" font-size="14" lengthAdjust="spacing" textLength="69.918" x="576.3835" y="428.2467">Resultado</text><line style="stroke:#181818;stroke-width:0.5;" x1="366.53" x2="823.655" y1="439.4" y2="439.4"/><line style="stroke:#181818;stroke-width:0.5;" x1="366.53" x2="823.655" y1="447.4" y2="447.4"/><text fill="#000000" font-family="sans-serif" font-size="14" lengthAdjust="spacing" textLength="447.125" x="371.53" y="464.3951">+registrarPodio(ouro: Atleta, prata: Atleta, bronze: Atleta): void</text><text fill="#000000" font-family="sans-serif" font-size="14" lengthAdjust="spacing" textLength="228.9082" x="371.53" y="480.692">+gerarRelatorioMedalhas(): void</text></g><g class="entity" data-qualified-name="GMN19" data-source-line="59" id="ent0020"><path d="M508.82,6 L508.82,61.3984 L681.3576,61.3984 L681.3576,16 L671.3576,6 L508.82,6" fill="#FEFFDD" style="stroke:#181818;stroke-width:0.5;"/><path d="M671.3576,6 L671.3576,16 L681.3576,16 L671.3576,6" fill="#FEFFDD" style="stroke:#181818;stroke-width:1;"/><text fill="#000000" font-family="sans-serif" font-size="13" lengthAdjust="spacing" textLength="136.189" x="514.82" y="23.0669">Garante que o Atleta</text><text fill="#000000" font-family="sans-serif" font-size="13" lengthAdjust="spacing" textLength="147.4053" x="514.82" y="38.1997">represente apenas um</text><text fill="#000000" font-family="sans-serif" font-size="13" lengthAdjust="spacing" textLength="151.1885" x="514.82" y="53.3325">Pa&#237;s nesta modalidade.</text></g><g class="entity" data-qualified-name="GMN22" data-source-line="65" id="ent0023"><path d="M1038.98,136.57 L1038.98,153.39 L816.79,159.05 L1038.98,161.39 L1038.98,176.8356 A0,0 0 0 0 1038.98,176.8356 L1225.2349,176.8356 A0,0 0 0 0 1225.2349,176.8356 L1225.2349,146.57 L1215.2349,136.57 L1038.98,136.57 A0,0 0 0 0 1038.98,136.57" fill="#FEFFDD" style="stroke:#181818;stroke-width:0.5;"/><path d="M1215.2349,136.57 L1215.2349,146.57 L1225.2349,146.57 L1215.2349,136.57" fill="#FEFFDD" style="stroke:#181818;stroke-width:0.5;"/><text fill="#000000" font-family="sans-serif" font-size="13" lengthAdjust="spacing" textLength="162.9189" x="1044.98" y="153.6369">Um local s&#243; pode abrigar</text><text fill="#000000" font-family="sans-serif" font-size="13" lengthAdjust="spacing" textLength="165.2549" x="1044.98" y="168.7697">uma competi&#231;&#227;o por vez.</text></g><!--link Atleta to Inscricao--><g class="link" data-entity-1="ent0004" data-entity-2="ent0008" data-link-type="association" data-source-line="47" id="lnk11"><path codeLine="47" d="M1058.78,413.23 C981.3,392.38 855.89,358.62 755.16,331.51" fill="none" id="Atleta-Inscricao" style="stroke:#181818;stroke-width:1;"/><text fill="#000000" font-family="sans-serif" font-size="13" lengthAdjust="spacing" textLength="8.271" x="1042.8202" y="424.0697">1</text><text fill="#000000" font-family="sans-serif" font-size="13" lengthAdjust="spacing" textLength="6.5" x="763.071" y="346.017">*</text></g><!--link Competi??o to Inscricao--><g class="link" data-entity-1="ent0007" data-entity-2="ent0008" data-link-type="association" data-source-line="48" id="lnk12"><path codeLine="48" d="M233.77,278.63 C293.15,280.29 368.58,282.4 435.07,284.26" fill="none" id="Competi&#231;&#227;o-Inscricao" style="stroke:#181818;stroke-width:1;"/><text fill="#000000" font-family="sans-serif" font-size="13" lengthAdjust="spacing" textLength="8.271" x="241.5143" y="291.4347">1</text><text fill="#000000" font-family="sans-serif" font-size="13" lengthAdjust="spacing" textLength="6.5" x="420.6773" y="296.4881">*</text></g><!--link Inscricao to Pa?s--><g class="link" data-entity-1="ent0008" data-entity-2="ent0003" data-link-type="association" data-source-line="49" id="lnk13"><path codeLine="49" d="M755.16,289.89 C835.1,290.49 930.58,291.2 1005.31,291.76" fill="none" id="Inscricao-Pa&#237;s" style="stroke:#181818;stroke-width:1;"/><text fill="#000000" font-family="sans-serif" font-size="13" lengthAdjust="spacing" textLength="74.6992" x="878.15" y="286.7669">Representa</text><text fill="#000000" font-family="sans-serif" font-size="13" lengthAdjust="spacing" textLength="6.5" x="763.071" y="302.381">*</text><text fill="#000000" font-family="sans-serif" font-size="13" lengthAdjust="spacing" textLength="8.271" x="989.3481" y="304.2306">1</text></g><!--link Competi??o to Local--><g class="link" data-entity-1="ent0007" data-entity-2="ent0006" data-link-type="association" data-source-line="51" id="lnk14"><path codeLine="51" d="M233.77,249.75 C281.89,237.86 340.55,223.36 396.46,209.54" fill="none" id="Competi&#231;&#227;o-Local" style="stroke:#181818;stroke-width:1;"/><text fill="#000000" font-family="sans-serif" font-size="13" lengthAdjust="spacing" textLength="68.8149" x="264.53" y="223.7669">Ocorre em</text><text fill="#000000" font-family="sans-serif" font-size="13" lengthAdjust="spacing" textLength="6.5" x="241.4521" y="260.524">*</text><text fill="#000000" font-family="sans-serif" font-size="13" lengthAdjust="spacing" textLength="8.271" x="361.2502" y="229.1871">1</text></g><!--link Competi??o to Resultado--><g class="link" data-entity-1="ent0007" data-entity-2="ent0010" data-link-type="association" data-source-line="52" id="lnk15"><path codeLine="52" d="M233.77,314.51 C308.29,342.06 408.11,378.96 483.79,406.93" fill="none" id="Competi&#231;&#227;o-Resultado" style="stroke:#181818;stroke-width:1;"/><text fill="#000000" font-family="sans-serif" font-size="13" lengthAdjust="spacing" textLength="41.1899" x="278.03" y="321.7669">Possui</text><text fill="#000000" font-family="sans-serif" font-size="13" lengthAdjust="spacing" textLength="8.271" x="241.5143" y="329.8375">1</text><text fill="#000000" font-family="sans-serif" font-size="13" lengthAdjust="spacing" textLength="24.8066" x="440.2029" y="396.3149">0..1</text></g><!--link Resultado to Atleta--><g class="link" data-entity-1="ent0010" data-entity-2="ent0004" data-link-type="dependency" data-source-line="54" id="lnk16"><path codeLine="54" d="M824.81,430.08 C835.57,429.54 846.23,429.08 856.65,428.7 C908.62,426.81 921.66,428.04 973.65,428.7 C1001.54,429.05 1026.2022,429.5989 1053.0022,430.3189" fill="none" id="Resultado-to-Atleta" style="stroke:#181818;stroke-width:1;"/><polygon fill="#181818" points="1059,430.48,1050.1107,426.2397,1054.0018,430.3457,1049.8958,434.2369,1059,430.48" style="stroke:#181818;stroke-width:1;"/><text fill="#000000" font-family="sans-serif" font-size="13" lengthAdjust="spacing" textLength="101.6196" x="864.65" y="422.7669">1&#186; Lugar (Ouro)</text><text fill="#000000" font-family="sans-serif" font-size="13" lengthAdjust="spacing" textLength="8.271" x="1043.0629" y="443.0986">1</text></g><!--link Resultado to Atleta--><g class="link" data-entity-1="ent0010" data-entity-2="ent0004" data-link-type="dependency" data-source-line="55" id="lnk17"><path codeLine="55" d="M825.1,457.37 C874.15,457.75 925.66,456.89 973.65,453.7 C1001.58,451.85 1026.179,448.9995 1052.859,445.2295" fill="none" id="Resultado-to-Atleta-1" style="stroke:#181818;stroke-width:1;"/><polygon fill="#181818" points="1058.8,444.39,1049.3289,441.6886,1053.8492,445.0896,1050.4482,449.6099,1058.8,444.39" style="stroke:#181818;stroke-width:1;"/><text fill="#000000" font-family="sans-serif" font-size="13" lengthAdjust="spacing" textLength="104.0635" x="863.15" y="449.7669">2&#186; Lugar (Prata)</text><text fill="#000000" font-family="sans-serif" font-size="13" lengthAdjust="spacing" textLength="8.271" x="1042.8422" y="458.443">1</text></g><!--link Resultado to Atleta--><g class="link" data-entity-1="ent0010" data-entity-2="ent0004" data-link-type="dependency" data-source-line="56" id="lnk18"><path codeLine="56" d="M824.99,485.97 C874.17,489.26 925.75,488.98 973.65,481.7 C1002.1,477.38 1026.7719,470.7792 1053.1819,462.0692" fill="none" id="Resultado-to-Atleta-2" style="stroke:#181818;stroke-width:1;"/><polygon fill="#181818" points="1058.88,460.19,1049.08,459.2101,1054.1316,461.756,1051.5857,466.8076,1058.88,460.19" style="stroke:#181818;stroke-width:1;"/><text fill="#000000" font-family="sans-serif" font-size="13" lengthAdjust="spacing" textLength="115.1274" x="857.65" y="477.7669">3&#186; Lugar (Bronze)</text><text fill="#000000" font-family="sans-serif" font-size="13" lengthAdjust="spacing" textLength="8.271" x="1042.9305" y="475.8724">1</text></g><!--link Inscricao to GMN19--><g class="link" data-entity-1="ent0008" data-entity-2="ent0020" data-link-type="association" data-source-line="59" id="lnk21"><path d="M435.05,287.1 C378.89,277.62 321.42,255.81 287.53,209.2 C262.7,175.05 262.7,148.35 287.53,114.2 C336.87,46.35 436.04,30.69 508.48,29.17" fill="none" id="Inscricao-GMN19" style="stroke:#181818;stroke-width:1;stroke-dasharray:7,7;"/></g><?plantuml-src ZLHDJzj04BtxLunyQIWaWlOM8QJGL0W9X0lb1qpMGrXXxxYpQmwf-3KzzDHJRpsIFzRn1x7pKOeFKJpxzitRjy_Z7wmhK307aw7tan34pif0vuRTZLqG74OPtGK836Bdzm5IAsI2PHT51Pe7d1F4P-G3yfGIb62DBT05yZ5yZq2VcXSINFxoRQLwXk0ufp7SQ3ytxvLpIZ6xHtzL2e_XN9dc93lM4y60hm5EXTs2jX7xWA74p2vGlfIO2b-s6mPxOtXaczR8fwWdVX8o2lWMzON2iM09wujFqTCEkpu_aWkyOTG56ypUqigW4jeKqvrdV2InTzQWJAqlsDcPpMhi8ArjcsAW0xXdGR5gyrURavx-b3aZTDi6VEAye62NFvS_U4lR9Qj_hP0jbLsxNd6jRrzqpIEJJ3qmo8CjITLlJzQvyqRqa0p7nnFlsLYiadboigQnah12RcXPzKpG-bjd3ISitO6s5UownsloPHOmtRpALRqdPn-4vjO7DI3XrFA0wvmt2Jk0eadro-kipN3ptizdmwLtZd9D6GPMF_yHP9Ny3YgGKMymhpCNjP6EZs8O3Y5-7tTcHcktlHFH6L_LgsL5DP_u6E9hAeIyzi4usY3hq4tE5NrbM8I0ydXtuyFHIFzrNkgMXBqlhP9trU7mfDxHdaj1Hyz_uAASey2WcYLxyQle3nswdYp_WN_iuCsSKNpaE13CE0JEWUzwTW6SwOZLRnI-bGJSycXPNfmYm88SUYZpAk2DbQxA5-IhD8uYSYbKNTfUpKJMLhMPkkysXwpsrIz_Gy6fqiuKXDLaA7C4qpTOnvIEYKN7-XS0?></g></svg>