<svg xmlns="http://www.w3.org/2000/svg" xmlns:xlink="http://www.w3.org/1999/xlink" contentStyleType="text/css" data-diagram-type="DESCRIPTION" height="527px" preserveAspectRatio="none" style="width:1933px;height:527px;background:#FFFFFF;" version="1.1" viewBox="0 0 1933 527" width="1933px" zoomAndPan="magnify"><?plantuml 1.2026.4beta2?><defs/><g><!--cluster Sistema de Gest?o das Olimp?adas (SGO)--><g class="cluster" data-qualified-name="Sistema de Gest.o das Olimp.adas .SGO." data-source-line="3" id="ent0002"><path d="M8.5,49.45 L334.1318,49.45 A3.75,3.75 0 0 1 336.6318,51.95 L343.6318,71.7469 L1915.5,71.7469 A2.5,2.5 0 0 1 1918,74.2469 L1918,509.95 A2.5,2.5 0 0 1 1915.5,512.45 L8.5,512.45 A2.5,2.5 0 0 1 6,509.95 L6,51.95 A2.5,2.5 0 0 1 8.5,49.45" fill="none" style="stroke:#000000;stroke-width:1.5;"/><line style="stroke:#000000;stroke-width:1.5;" x1="6" x2="343.6318" y1="71.7469" y2="71.7469"/><text fill="#000000" font-family="sans-serif" font-size="14" font-weight="700" lengthAdjust="spacing" textLength="324.6318" x="10" y="64.4451">Sistema de Gest&#227;o das Olimp&#237;adas (SGO)</text></g><!--cluster Frontend--><g class="cluster" data-qualified-name="Sistema de Gest.o das Olimp.adas .SGO..Frontend" data-source-line="5" id="ent0003"><polygon fill="none" points="30,187.45,40,177.45,244.28,177.45,244.28,269.45,234.28,279.45,30,279.45,30,187.45" style="stroke:#181818;stroke-width:1;"/><line style="stroke:#181818;stroke-width:1;" x1="234.28" x2="244.28" y1="187.45" y2="177.45"/><line style="stroke:#181818;stroke-width:1;" x1="30" x2="234.28" y1="187.45" y2="187.45"/><line style="stroke:#181818;stroke-width:1;" x1="234.28" x2="234.28" y1="187.45" y2="279.45"/><text fill="#000000" font-family="sans-serif" font-size="14" font-weight="700" lengthAdjust="spacing" textLength="72.2285" x="97.0257" y="203.4451">Frontend</text></g><!--cluster Backend (Regras de Neg?cio)--><g class="cluster" data-qualified-name="Sistema de Gest.o das Olimp.adas .SGO..Backend .Regras de Neg.cio." data-source-line="9" id="ent0005"><polygon fill="none" points="316.28,102.45,326.28,92.45,1610.2,92.45,1610.2,478.45,1600.2,488.45,316.28,488.45,316.28,102.45" style="stroke:#181818;stroke-width:1;"/><line style="stroke:#181818;stroke-width:1;" x1="1600.2" x2="1610.2" y1="102.45" y2="92.45"/><line style="stroke:#181818;stroke-width:1;" x1="316.28" x2="1600.2" y1="102.45" y2="102.45"/><line style="stroke:#181818;stroke-width:1;" x1="1600.2" x2="1600.2" y1="102.45" y2="488.45"/><text fill="#000000" font-family="sans-serif" font-size="14" font-weight="700" lengthAdjust="spacing" textLength="232.6953" x="842.8923" y="118.4451">Backend (Regras de Neg&#243;cio)</text></g><!--cluster Armazenamento--><g class="cluster" data-qualified-name="Sistema de Gest.o das Olimp.adas .SGO..Armazenamento" data-source-line="35" id="ent0025"><path d="M1682.2,273.45 C1682.2,263.45 1788.1,263.45 1788.1,263.45 C1788.1,263.45 1894,263.45 1894,273.45 L1894,365.45 C1894,375.45 1788.1,375.45 1788.1,375.45 C1788.1,375.45 1682.2,375.45 1682.2,365.45 L1682.2,273.45" fill="none" style="stroke:#181818;stroke-width:1;"/><path d="M1682.2,273.45 C1682.2,283.45 1788.1,283.45 1788.1,283.45 C1788.1,283.45 1894,283.45 1894,273.45" fill="none" style="stroke:#181818;stroke-width:1;"/><text fill="#000000" font-family="sans-serif" font-size="14" font-weight="700" lengthAdjust="spacing" textLength="129.1924" x="1723.5038" y="298.4451">Armazenamento</text></g><!--entity UI--><g class="entity" data-qualified-name="Sistema de Gest.o das Olimp.adas .SGO..Frontend.UI" data-source-line="6" id="ent0004"><rect fill="#F1F1F1" height="46.2969" rx="2.5" ry="2.5" style="stroke:#181818;stroke-width:0.5;" width="182.2832" x="46" y="217.3"/><rect fill="#F1F1F1" height="10" style="stroke:#181818;stroke-width:0.5;" width="15" x="208.2832" y="222.3"/><rect fill="#F1F1F1" height="2" style="stroke:#181818;stroke-width:0.5;" width="4" x="206.2832" y="224.3"/><rect fill="#F1F1F1" height="2" style="stroke:#181818;stroke-width:0.5;" width="4" x="206.2832" y="228.3"/><text fill="#000000" font-family="sans-serif" font-size="14" lengthAdjust="spacing" textLength="142.2832" x="61" y="250.2951">Interface de Usu&#225;rio</text></g><!--entity ModComp--><g class="entity" data-qualified-name="Sistema de Gest.o das Olimp.adas .SGO..Backend .Regras de Neg.cio..ModComp" data-source-line="11" id="ent0006"><rect fill="#F1F1F1" height="46.2969" rx="2.5" ry="2.5" style="stroke:#181818;stroke-width:0.5;" width="208.2871" x="1385.91" y="207.3"/><rect fill="#F1F1F1" height="10" style="stroke:#181818;stroke-width:0.5;" width="15" x="1574.1971" y="212.3"/><rect fill="#F1F1F1" height="2" style="stroke:#181818;stroke-width:0.5;" width="4" x="1572.1971" y="214.3"/><rect fill="#F1F1F1" height="2" style="stroke:#181818;stroke-width:0.5;" width="4" x="1572.1971" y="218.3"/><text fill="#000000" font-family="sans-serif" font-size="14" lengthAdjust="spacing" textLength="168.2871" x="1400.91" y="240.2951">M&#243;dulo de Competi&#231;&#245;es</text></g><!--entity ModInsc--><g class="entity" data-qualified-name="Sistema de Gest.o das Olimp.adas .SGO..Backend .Regras de Neg.cio..ModInsc" data-source-line="12" id="ent0007"><rect fill="#F1F1F1" height="46.2969" rx="2.5" ry="2.5" style="stroke:#181818;stroke-width:0.5;" width="187.0684" x="670.56" y="154.3"/><rect fill="#F1F1F1" height="10" style="stroke:#181818;stroke-width:0.5;" width="15" x="837.6284" y="159.3"/><rect fill="#F1F1F1" height="2" style="stroke:#181818;stroke-width:0.5;" width="4" x="835.6284" y="161.3"/><rect fill="#F1F1F1" height="2" style="stroke:#181818;stroke-width:0.5;" width="4" x="835.6284" y="165.3"/><text fill="#000000" font-family="sans-serif" font-size="14" lengthAdjust="spacing" textLength="147.0684" x="685.56" y="187.2951">M&#243;dulo de Inscri&#231;&#245;es</text></g><!--entity ModAloc--><g class="entity" data-qualified-name="Sistema de Gest.o das Olimp.adas .SGO..Backend .Regras de Neg.cio..ModAloc" data-source-line="13" id="ent0008"><rect fill="#F1F1F1" height="46.2969" rx="2.5" ry="2.5" style="stroke:#181818;stroke-width:0.5;" width="180.4102" x="673.89" y="279.3"/><rect fill="#F1F1F1" height="10" style="stroke:#181818;stroke-width:0.5;" width="15" x="834.3002" y="284.3"/><rect fill="#F1F1F1" height="2" style="stroke:#181818;stroke-width:0.5;" width="4" x="832.3002" y="286.3"/><rect fill="#F1F1F1" height="2" style="stroke:#181818;stroke-width:0.5;" width="4" x="832.3002" y="290.3"/><text fill="#000000" font-family="sans-serif" font-size="14" lengthAdjust="spacing" textLength="140.4102" x="688.89" y="312.2951">M&#243;dulo de Aloca&#231;&#227;o</text></g><!--entity ModRel--><g class="entity" data-qualified-name="Sistema de Gest.o das Olimp.adas .SGO..Backend .Regras de Neg.cio..ModRel" data-source-line="14" id="ent0009"><rect fill="#F1F1F1" height="46.2969" rx="2.5" ry="2.5" style="stroke:#181818;stroke-width:0.5;" width="187.6289" x="670.28" y="399.3"/><rect fill="#F1F1F1" height="10" style="stroke:#181818;stroke-width:0.5;" width="15" x="837.9089" y="404.3"/><rect fill="#F1F1F1" height="2" style="stroke:#181818;stroke-width:0.5;" width="4" x="835.9089" y="406.3"/><rect fill="#F1F1F1" height="2" style="stroke:#181818;stroke-width:0.5;" width="4" x="835.9089" y="410.3"/><text fill="#000000" font-family="sans-serif" font-size="14" lengthAdjust="spacing" textLength="147.6289" x="685.28" y="432.2951">M&#243;dulo de Relat&#243;rios</text></g><!--entity IComp--><g class="entity" data-qualified-name="Sistema de Gest.o das Olimp.adas .SGO..Backend .Regras de Neg.cio..IComp" data-source-line="17" id="ent0010"><ellipse cx="1200.91" cy="210.45" fill="#F1F1F1" rx="8" ry="8" style="stroke:#181818;stroke-width:0.5;"/><text fill="#000000" font-family="sans-serif" font-size="14" lengthAdjust="spacing" textLength="87.8281" x="1123.1034" y="240.4451">ICompeticao</text><text fill="#000000" font-family="sans-serif" font-size="14" lengthAdjust="spacing" textLength="155.6133" x="1123.1034" y="256.742">(Cadastrar, Consultar)</text></g><!--entity IInsc--><g class="entity" data-qualified-name="Sistema de Gest.o das Olimp.adas .SGO..Backend .Regras de Neg.cio..IInsc" data-source-line="18" id="ent0011"><ellipse cx="451.28" cy="177.45" fill="#F1F1F1" rx="8" ry="8" style="stroke:#181818;stroke-width:0.5;"/><text fill="#000000" font-family="sans-serif" font-size="14" lengthAdjust="spacing" textLength="66.6094" x="344.9094" y="207.4451">IInscricao</text><text fill="#000000" font-family="sans-serif" font-size="14" lengthAdjust="spacing" textLength="212.7412" x="344.9094" y="223.742">(Inscrever Atleta, Validar Pa&#237;s)</text></g><!--entity IAloc--><g class="entity" data-qualified-name="Sistema de Gest.o das Olimp.adas .SGO..Backend .Regras de Neg.cio..IAloc" data-source-line="19" id="ent0012"><ellipse cx="451.28" cy="302.45" fill="#F1F1F1" rx="8" ry="8" style="stroke:#181818;stroke-width:0.5;"/><text fill="#000000" font-family="sans-serif" font-size="14" lengthAdjust="spacing" textLength="67.2793" x="344.9846" y="332.4451">IAlocacao</text><text fill="#000000" font-family="sans-serif" font-size="14" lengthAdjust="spacing" textLength="212.5908" x="344.9846" y="348.742">(Alocar Local, Checar Conflito)</text></g><!--entity IRel--><g class="entity" data-qualified-name="Sistema de Gest.o das Olimp.adas .SGO..Backend .Regras de Neg.cio..IRel" data-source-line="20" id="ent0013"><ellipse cx="451.28" cy="427.45" fill="#F1F1F1" rx="8" ry="8" style="stroke:#181818;stroke-width:0.5;"/><text fill="#000000" font-family="sans-serif" font-size="14" lengthAdjust="spacing" textLength="74.0469" x="340.1311" y="457.4451">IResultado</text><text fill="#000000" font-family="sans-serif" font-size="14" lengthAdjust="spacing" textLength="222.2979" x="340.1311" y="473.742">(Registrar P&#243;dio, Gerar Quadro)</text></g><!--entity BD--><g class="entity" data-qualified-name="Sistema de Gest.o das Olimp.adas .SGO..Armazenamento.BD" data-source-line="36" id="ent0026"><rect fill="#F1F1F1" height="46.2969" rx="2.5" ry="2.5" style="stroke:#181818;stroke-width:0.5;" width="179.8018" x="1698.2" y="313.3"/><rect fill="#F1F1F1" height="10" style="stroke:#181818;stroke-width:0.5;" width="15" x="1858.0018" y="318.3"/><rect fill="#F1F1F1" height="2" style="stroke:#181818;stroke-width:0.5;" width="4" x="1856.0018" y="320.3"/><rect fill="#F1F1F1" height="2" style="stroke:#181818;stroke-width:0.5;" width="4" x="1856.0018" y="324.3"/><text fill="#000000" font-family="sans-serif" font-size="14" lengthAdjust="spacing" textLength="139.8018" x="1713.2" y="346.2951">Base de Dados SGO</text></g><!--link IComp to ModComp--><g class="link" data-entity-1="ent0010" data-entity-2="ent0006" data-link-type="association" data-source-line="23" id="lnk15"><path d="M1209.89,211.01 C1235.39,212.78 1317.24,218.48 1385.76,223.26" fill="none" id="IComp-ModComp" style="stroke:#181818;stroke-width:1;"/></g><!--link IInsc to ModInsc--><g class="link" data-entity-1="ent0011" data-entity-2="ent0007" data-link-type="association" data-source-line="24" id="lnk17"><path d="M460.28,177.45 C489.45,177.45 592.51,177.45 670.36,177.45" fill="none" id="IInsc-ModInsc" style="stroke:#181818;stroke-width:1;"/></g><!--link IAloc to ModAloc--><g class="link" data-entity-1="ent0012" data-entity-2="ent0008" data-link-type="association" data-source-line="25" id="lnk19"><path d="M460.28,302.45 C489.83,302.45 595.21,302.45 673.39,302.45" fill="none" id="IAloc-ModAloc" style="stroke:#181818;stroke-width:1;"/></g><!--link IRel to ModRel--><g class="link" data-entity-1="ent0013" data-entity-2="ent0009" data-link-type="association" data-source-line="26" id="lnk21"><path d="M460.28,427.32 C489.4,426.85 592.18,425.2 669.98,423.95" fill="none" id="IRel-ModRel" style="stroke:#181818;stroke-width:1;"/></g><!--link ModInsc to IComp--><g class="link" data-entity-1="ent0007" data-entity-2="ent0010" data-link-type="dependency" data-source-line="30" id="lnk22"><path d="M857.95,179.1 C922.12,180.89 1009.36,184.64 1085.91,192.45 C1125.98,196.54 1167.5189,204.1618 1186.0489,207.7418" fill="none" id="ModInsc-to-IComp" style="stroke:#181818;stroke-width:1;stroke-dasharray:7,7;"/><polygon fill="#181818" points="1191.94,208.88,1183.8622,203.2454,1187.0308,207.9315,1182.3446,211.1001,1191.94,208.88" style="stroke:#181818;stroke-width:1;"/><text fill="#000000" font-family="sans-serif" font-size="13" lengthAdjust="spacing" textLength="192.3975" x="890.91" y="176.5169">Requer dados da Competi&#231;&#227;o</text></g><!--link ModAloc to IComp--><g class="link" data-entity-1="ent0008" data-entity-2="ent0010" data-link-type="dependency" data-source-line="31" id="lnk23"><path d="M811.21,278.86 C833.79,268.27 861.7,256.59 887.91,249.45 C948.09,233.06 1143.4328,215.3824 1185.9928,211.6624" fill="none" id="ModAloc-to-IComp" style="stroke:#181818;stroke-width:1;stroke-dasharray:7,7;"/><polygon fill="#181818" points="1191.97,211.14,1182.6559,207.9389,1186.989,211.5754,1183.3525,215.9085,1191.97,211.14" style="stroke:#181818;stroke-width:1;"/><text fill="#000000" font-family="sans-serif" font-size="13" lengthAdjust="spacing" textLength="179.7148" x="897.41" y="217.5169">Vincula Local &#224; Competi&#231;&#227;o</text></g><!--link ModRel to IComp--><g class="link" data-entity-1="ent0009" data-entity-2="ent0010" data-link-type="dependency" data-source-line="32" id="lnk24"><path d="M819.65,398.87 C883.99,370.69 993.85,321.43 1085.91,274.45 C1126.55,253.71 1168.492,229.145 1186.852,218.235" fill="none" id="ModRel-to-IComp" style="stroke:#181818;stroke-width:1;stroke-dasharray:7,7;"/><polygon fill="#181818" points="1192.01,215.17,1182.2296,216.3289,1187.7116,217.7242,1186.3163,223.2063,1192.01,215.17" style="stroke:#181818;stroke-width:1;"/><text fill="#000000" font-family="sans-serif" font-size="13" lengthAdjust="spacing" textLength="196.4346" x="888.91" y="270.5169">Registra p&#243;dio da Competi&#231;&#227;o</text></g><!--link UI to IComp--><g class="link" data-entity-1="ent0004" data-entity-2="ent0010" data-link-type="dependency" data-source-line="41" id="lnk27"><path d="M159.86,216.9 C189.79,186.38 247.02,134.66 308.28,114.45 C636.95,6 752.02,64.36 1085.91,155.45 C1128.31,167.02 1168.9587,190.8893 1186.9387,202.1793" fill="none" id="UI-to-IComp" style="stroke:#181818;stroke-width:1;stroke-dasharray:7,7;"/><polygon fill="#181818" points="1192.02,205.37,1186.5251,197.1965,1187.7856,202.7111,1182.2709,203.9716,1192.02,205.37" style="stroke:#181818;stroke-width:1;"/><text fill="#000000" font-family="sans-serif" font-size="13" lengthAdjust="spacing" textLength="38.9175" x="601.28" y="52.5169">&#171;use&#187;</text></g><!--link UI to IInsc--><g class="link" data-entity-1="ent0004" data-entity-2="ent0011" data-link-type="dependency" data-source-line="42" id="lnk28"><path d="M228.43,222.23 C307.29,206.31 407.6986,186.0472 436.7786,180.1772" fill="none" id="UI-to-IInsc" style="stroke:#181818;stroke-width:1;stroke-dasharray:7,7;"/><polygon fill="#181818" points="442.66,178.99,433.0465,176.8499,437.7589,179.9793,434.6294,184.6917,442.66,178.99" style="stroke:#181818;stroke-width:1;"/><text fill="#000000" font-family="sans-serif" font-size="13" lengthAdjust="spacing" textLength="38.9175" x="261.28" y="205.5169">&#171;use&#187;</text></g><!--link UI to IAloc--><g class="link" data-entity-1="ent0004" data-entity-2="ent0012" data-link-type="dependency" data-source-line="43" id="lnk29"><path d="M227.32,264.04 C238.39,266.68 249.57,269.22 260.28,271.45 C330.63,286.09 410.8829,297.2051 436.6929,300.6551" fill="none" id="UI-to-IAloc" style="stroke:#181818;stroke-width:1;stroke-dasharray:7,7;"/><polygon fill="#181818" points="442.64,301.45,434.2493,296.2928,437.6841,300.7875,433.1894,304.2223,442.64,301.45" style="stroke:#181818;stroke-width:1;"/><text fill="#000000" font-family="sans-serif" font-size="13" lengthAdjust="spacing" textLength="38.9175" x="261.28" y="267.5169">&#171;use&#187;</text></g><!--link UI to IRel--><g class="link" data-entity-1="ent0004" data-entity-2="ent0013" data-link-type="dependency" data-source-line="44" id="lnk30"><path d="M166.37,263.92 C199.13,290.46 255.42,333.93 308.28,364.45 C356.86,392.5 414.6019,414.5077 436.6619,422.5377" fill="none" id="UI-to-IRel" style="stroke:#181818;stroke-width:1;stroke-dasharray:7,7;"/><polygon fill="#181818" points="442.3,424.59,435.2111,417.7528,437.6016,422.8797,432.4747,425.2703,442.3,424.59" style="stroke:#181818;stroke-width:1;"/><text fill="#000000" font-family="sans-serif" font-size="13" lengthAdjust="spacing" textLength="38.9175" x="261.28" y="333.5169">&#171;use&#187;</text></g><!--link ModComp to BD--><g class="link" data-entity-1="ent0006" data-entity-2="ent0026" data-link-type="dependency" data-source-line="47" id="lnk31"><path d="M1556.76,253.97 C1605.65,271.48 1666.4514,293.2468 1715.4214,310.7868" fill="none" id="ModComp-to-BD" style="stroke:#181818;stroke-width:1;stroke-dasharray:7,7;"/><polygon fill="#181818" points="1721.07,312.81,1713.9459,306.0095,1716.3628,311.124,1711.2483,313.5409,1721.07,312.81" style="stroke:#181818;stroke-width:1;"/><text fill="#000000" font-family="sans-serif" font-size="13" lengthAdjust="spacing" textLength="38.9175" x="1627.2" y="276.5169">&#171;use&#187;</text></g><!--link ModInsc to BD--><g class="link" data-entity-1="ent0007" data-entity-2="ent0026" data-link-type="dependency" data-source-line="48" id="lnk32"><path d="M794.2,200.97 C813.29,217.05 838.25,239.38 857.91,261.45 C873.17,278.58 867.71,292.58 887.91,303.45 C923.14,322.41 1471.8906,332.0744 1692.0506,335.2144" fill="none" id="ModInsc-to-BD" style="stroke:#181818;stroke-width:1;stroke-dasharray:7,7;"/><polygon fill="#181818" points="1698.05,335.3,1689.108,331.1721,1693.0505,335.2287,1688.9939,339.1712,1698.05,335.3" style="stroke:#181818;stroke-width:1;"/><text fill="#000000" font-family="sans-serif" font-size="13" lengthAdjust="spacing" textLength="38.9175" x="1316.91" y="324.5169">&#171;use&#187;</text></g><!--link ModAloc to BD--><g class="link" data-entity-1="ent0008" data-entity-2="ent0026" data-link-type="dependency" data-source-line="49" id="lnk33"><path d="M854.64,313.42 C865.84,314.78 877.14,316.15 887.91,317.45 C1095.64,342.51 1146.82,376.2 1355.91,368.45 C1474.43,364.06 1604.9245,353.4419 1692.0445,345.5419" fill="none" id="ModAloc-to-BD" style="stroke:#181818;stroke-width:1;stroke-dasharray:7,7;"/><polygon fill="#181818" points="1698.02,345,1688.6955,341.8291,1693.0404,345.4515,1689.418,349.7964,1698.02,345" style="stroke:#181818;stroke-width:1;"/><text fill="#000000" font-family="sans-serif" font-size="13" lengthAdjust="spacing" textLength="38.9175" x="1316.91" y="364.5169">&#171;use&#187;</text></g><!--link ModRel to BD--><g class="link" data-entity-1="ent0009" data-entity-2="ent0026" data-link-type="dependency" data-source-line="50" id="lnk34"><path d="M858.15,423.06 C1015.58,422.81 1344.1,416.77 1618.2,375.45 C1644.24,371.52 1666.366,367.0892 1691.906,361.1492" fill="none" id="ModRel-to-BD" style="stroke:#181818;stroke-width:1;stroke-dasharray:7,7;"/><polygon fill="#181818" points="1697.75,359.79,1688.0778,357.9328,1692.88,360.9227,1689.8901,365.7248,1697.75,359.79" style="stroke:#181818;stroke-width:1;"/><text fill="#000000" font-family="sans-serif" font-size="13" lengthAdjust="spacing" textLength="38.9175" x="1316.91" y="401.5169">&#171;use&#187;</text></g><?plantuml-src XLJ1Rjim3BtxAmXVcW1fTn-A0ac35WRQjKlNNheT69jEXTcI9yaxTEY_RDXXm82UWds1VsoKh3Xsqg8-61OfFfEFZomejs0LQB5wi909JQaLIaPHXUbNN174Dy9OAX4oWdCojlcj84C3LuKeg-OPtVVevlng7CEF2FZnBwduUdocbRGaiutBFVS9ctIEAJd4MrCtlxHGNu1XRXD_wsaNPiQfC0gC5hJIV8zj7sZLh5EXndte0vXJBgHe_lWabO7BPftLXJBTbLILbP8aBSJ1vz1EsKhMnVqZ4xjKBbNcZ6_49TAaUYVCsTu8cnOgHP_a9iXPtWXQK86sMJDNtQ_Or0NrIEW8Dd2cjAHK-1vTmRUQ8EM6GHbWStnyftBYdXDKg14KcBRRumvFTEsAay1JYkgp79swrbkDUiByILCN5lNOfvOCgEi3j8IryVwRlfE6gIt8uWJkiE1KDLnZysm2r83EFfGdiKNodnek-5rmCW_aJfnJNWYh0iw0uJxEWdpgcGDYVGbV4bmpGq9DMF7kzB76J6-GNc7zGgnGPWfOTO5U0yrF0wRc8B5jITwrf0iEOeF3kZhS8Iy8AhW6P0JP1DUWlbORmVDAldEgUAQQlp8LcmIbaqbFFGjYnMYldaCt8wgznbkX70_qjfs2IITkFi10jL2npeJ1aWKUvEBu7CpUNjr7HoSj8_0UuZOVtZvkj5d6sr2Uf3rU1g5tGgPrWQr6k2-lnphYTlxQYW8ghucNVzpRMHbQNA9XRKrrYOyaiUHPLeCTE7D-7kgvBuMtfzz_itd0UegY0vZ2YvlIiwTAWg6iHjFhn8nvWHlU7M8f2l7eLtD5FEVBTe56jycWjEFZsj39IMVsZE-RFPlxPaVKrie9VrAkcBx-NMQkuGZBKB3lNRGHlCEPpNie_RRlEhgcxZes7UlR_mC0?></g></svg>