<svg xmlns="http://www.w3.org/2000/svg" xmlns:xlink="http://www.w3.org/1999/xlink" contentStyleType="text/css" data-diagram-type="DESCRIPTION" height="840px" preserveAspectRatio="none" style="width:1509px;height:840px;background:#FFFFFF;" version="1.1" viewBox="0 0 1509 840" width="1509px" zoomAndPan="magnify"><?plantuml 1.2026.4beta2?><defs/><g><!--cluster client--><g class="cluster" data-qualified-name="client" data-source-line="7" id="ent0002"><polygon fill="#FFFFFF" points="16,129.7,26,119.7,325.44,119.7,325.44,328.7,315.44,338.7,16,338.7,16,129.7" style="stroke:#000000;stroke-width:1;"/><line style="stroke:#000000;stroke-width:1;" x1="315.44" x2="325.44" y1="129.7" y2="119.7"/><line style="stroke:#000000;stroke-width:1;" x1="16" x2="315.44" y1="129.7" y2="129.7"/><line style="stroke:#000000;stroke-width:1;" x1="315.44" x2="315.44" y1="129.7" y2="338.7"/><text fill="#000000" font-family="sans-serif" font-size="14" font-weight="700" lengthAdjust="spacing" textLength="177.584" x="77.928" y="145.6951">Dispositivo do Usu&#225;rio</text></g><!--cluster browser--><g class="cluster" data-qualified-name="client.browser" data-source-line="8" id="ent0003"><polygon fill="#FFFFFF" points="48,185.7,58,175.7,293.44,175.7,293.44,296.7,283.44,306.7,48,306.7,48,185.7" style="stroke:#000000;stroke-width:1;"/><line style="stroke:#000000;stroke-width:1;" x1="283.44" x2="293.44" y1="185.7" y2="175.7"/><line style="stroke:#000000;stroke-width:1;" x1="48" x2="283.44" y1="185.7" y2="185.7"/><line style="stroke:#000000;stroke-width:1;" x1="283.44" x2="283.44" y1="185.7" y2="306.7"/><text fill="#000000" font-family="sans-serif" font-size="14" font-weight="700" lengthAdjust="spacing" textLength="125.6309" x="103.9046" y="201.6951">Navegador Web</text></g><!--cluster server--><g class="cluster" data-qualified-name="server" data-source-line="15" id="ent0006"><polygon fill="#FFFFFF" points="716.08,185.7,726.08,175.7,1484.37,175.7,1484.37,563.7,1474.37,573.7,716.08,573.7,716.08,185.7" style="stroke:#000000;stroke-width:1;"/><line style="stroke:#000000;stroke-width:1;" x1="1474.37" x2="1484.37" y1="185.7" y2="175.7"/><line style="stroke:#000000;stroke-width:1;" x1="716.08" x2="1474.37" y1="185.7" y2="185.7"/><line style="stroke:#000000;stroke-width:1;" x1="1474.37" x2="1474.37" y1="185.7" y2="573.7"/><text fill="#000000" font-family="sans-serif" font-size="14" font-weight="700" lengthAdjust="spacing" textLength="281.9277" x="955.2611" y="201.6951">Servidor de Aplica&#231;&#227;o (Linux/Cloud)</text></g><!--cluster jvm--><g class="cluster" data-qualified-name="server.jvm" data-source-line="16" id="ent0007"><polygon fill="#FFFFFF" points="748.08,249.7,758.08,239.7,1452.37,239.7,1452.37,531.7,1442.37,541.7,748.08,541.7,748.08,249.7" style="stroke:#000000;stroke-width:1;"/><line style="stroke:#000000;stroke-width:1;" x1="1442.37" x2="1452.37" y1="249.7" y2="239.7"/><line style="stroke:#000000;stroke-width:1;" x1="748.08" x2="1442.37" y1="249.7" y2="249.7"/><line style="stroke:#000000;stroke-width:1;" x1="1442.37" x2="1442.37" y1="249.7" y2="541.7"/><text fill="#000000" font-family="sans-serif" font-size="14" font-weight="700" lengthAdjust="spacing" textLength="253.1758" x="969.6371" y="265.6951">Java Runtime Environment (JRE)</text></g><!--cluster artifact--><g class="cluster" data-qualified-name="server.jvm.artifact" data-source-line="17" id="ent0008"><rect fill="none" height="214" rx="2.5" ry="2.5" style="stroke:#181818;stroke-width:1;" width="640.29" x="780.08" y="295.7"/><polygon fill="none" points="1403.37,300.7,1403.37,314.7,1415.37,314.7,1415.37,306.7,1409.37,300.7,1403.37,300.7" style="stroke:#181818;stroke-width:1;"/><line style="stroke:#181818;stroke-width:1;" x1="1409.37" x2="1409.37" y1="300.7" y2="306.7"/><line style="stroke:#181818;stroke-width:1;" x1="1415.37" x2="1409.37" y1="306.7" y2="306.7"/><text fill="#000000" font-family="sans-serif" font-size="14" font-weight="700" lengthAdjust="spacing" textLength="251.3096" x="974.5702" y="310.6951">sgo-app.jar &#171;Monolito Modular&#187;</text></g><!--cluster db_server--><g class="cluster" data-qualified-name="db_server" data-source-line="26" id="ent0013"><polygon fill="#FFFFFF" points="1161.36,623.7,1171.36,613.7,1458.86,613.7,1458.86,805.7,1448.86,815.7,1161.36,815.7,1161.36,623.7" style="stroke:#000000;stroke-width:1;"/><line style="stroke:#000000;stroke-width:1;" x1="1448.86" x2="1458.86" y1="623.7" y2="613.7"/><line style="stroke:#000000;stroke-width:1;" x1="1161.36" x2="1448.86" y1="623.7" y2="623.7"/><line style="stroke:#000000;stroke-width:1;" x1="1448.86" x2="1448.86" y1="623.7" y2="815.7"/><text fill="#000000" font-family="sans-serif" font-size="14" font-weight="700" lengthAdjust="spacing" textLength="222.5234" x="1194.8483" y="639.6951">Servidor de Banco de Dados</text></g><!--cluster db--><g class="cluster" data-qualified-name="db_server.db" data-source-line="27" id="ent0014"><path d="M1233.36,687.7 C1233.36,677.7 1310.11,677.7 1310.11,677.7 C1310.11,677.7 1386.86,677.7 1386.86,687.7 L1386.86,773.7 C1386.86,783.7 1310.11,783.7 1310.11,783.7 C1310.11,783.7 1233.36,783.7 1233.36,773.7 L1233.36,687.7" fill="none" style="stroke:#181818;stroke-width:1;"/><path d="M1233.36,687.7 C1233.36,697.7 1310.11,697.7 1310.11,697.7 C1310.11,697.7 1386.86,697.7 1386.86,687.7" fill="none" style="stroke:#181818;stroke-width:1;"/><text fill="#000000" font-family="sans-serif" font-size="14" font-weight="700" lengthAdjust="spacing" textLength="92.2305" x="1263.9948" y="712.6951">PostgreSQL</text></g><!--entity frontend--><g class="entity" data-qualified-name="client.browser.frontend" data-source-line="9" id="ent0004"><rect fill="#F1F1F1" height="39.2969" rx="2.5" ry="2.5" style="stroke:#181818;stroke-width:0.5;" width="197.4395" x="72" y="243.05"/><polygon fill="#F1F1F1" points="252.4395,248.05,252.4395,262.05,264.4395,262.05,264.4395,254.05,258.4395,248.05,252.4395,248.05" style="stroke:#181818;stroke-width:0.5;"/><line style="stroke:#181818;stroke-width:0.5;" x1="258.4395" x2="258.4395" y1="248.05" y2="254.05"/><line style="stroke:#181818;stroke-width:0.5;" x1="264.4395" x2="258.4395" y1="254.05" y2="254.05"/><text fill="#000000" font-family="sans-serif" font-size="14" lengthAdjust="spacing" textLength="167.4395" x="82" y="269.0451">Frontend (HTML/JS/CSS)</text></g><!--entity mod_comp--><g class="entity" data-qualified-name="server.jvm.artifact.mod_comp" data-source-line="18" id="ent0009"><rect fill="#F1F1F1" height="46.2969" rx="2.5" ry="2.5" style="stroke:#181818;stroke-width:0.5;" width="186.3369" x="804.08" y="419.55"/><rect fill="#F1F1F1" height="10" style="stroke:#181818;stroke-width:0.5;" width="15" x="970.4169" y="424.55"/><rect fill="#F1F1F1" height="2" style="stroke:#181818;stroke-width:0.5;" width="4" x="968.4169" y="426.55"/><rect fill="#F1F1F1" height="2" style="stroke:#181818;stroke-width:0.5;" width="4" x="968.4169" y="430.55"/><text fill="#000000" font-family="sans-serif" font-size="14" lengthAdjust="spacing" textLength="146.3369" x="819.08" y="452.5451">M&#243;dulo Competi&#231;&#245;es</text></g><!--entity mod_insc--><g class="entity" data-qualified-name="server.jvm.artifact.mod_insc" data-source-line="19" id="ent0010"><rect fill="#F1F1F1" height="46.2969" rx="2.5" ry="2.5" style="stroke:#181818;stroke-width:0.5;" width="165.1182" x="814.69" y="338.55"/><rect fill="#F1F1F1" height="10" style="stroke:#181818;stroke-width:0.5;" width="15" x="959.8082" y="343.55"/><rect fill="#F1F1F1" height="2" style="stroke:#181818;stroke-width:0.5;" width="4" x="957.8082" y="345.55"/><rect fill="#F1F1F1" height="2" style="stroke:#181818;stroke-width:0.5;" width="4" x="957.8082" y="349.55"/><text fill="#000000" font-family="sans-serif" font-size="14" lengthAdjust="spacing" textLength="125.1182" x="829.69" y="371.5451">M&#243;dulo Inscri&#231;&#245;es</text></g><!--entity mod_aloc--><g class="entity" data-qualified-name="server.jvm.artifact.mod_aloc" data-source-line="20" id="ent0011"><rect fill="#F1F1F1" height="46.2969" rx="2.5" ry="2.5" style="stroke:#181818;stroke-width:0.5;" width="158.46" x="1230.88" y="419.55"/><rect fill="#F1F1F1" height="10" style="stroke:#181818;stroke-width:0.5;" width="15" x="1369.34" y="424.55"/><rect fill="#F1F1F1" height="2" style="stroke:#181818;stroke-width:0.5;" width="4" x="1367.34" y="426.55"/><rect fill="#F1F1F1" height="2" style="stroke:#181818;stroke-width:0.5;" width="4" x="1367.34" y="430.55"/><text fill="#000000" font-family="sans-serif" font-size="14" lengthAdjust="spacing" textLength="118.46" x="1245.88" y="452.5451">M&#243;dulo Aloca&#231;&#227;o</text></g><!--entity mod_rel--><g class="entity" data-qualified-name="server.jvm.artifact.mod_rel" data-source-line="21" id="ent0012"><rect fill="#F1F1F1" height="46.2969" rx="2.5" ry="2.5" style="stroke:#181818;stroke-width:0.5;" width="172.5215" x="1223.85" y="338.55"/><rect fill="#F1F1F1" height="10" style="stroke:#181818;stroke-width:0.5;" width="15" x="1376.3715" y="343.55"/><rect fill="#F1F1F1" height="2" style="stroke:#181818;stroke-width:0.5;" width="4" x="1374.3715" y="345.55"/><rect fill="#F1F1F1" height="2" style="stroke:#181818;stroke-width:0.5;" width="4" x="1374.3715" y="349.55"/><text fill="#000000" font-family="sans-serif" font-size="14" lengthAdjust="spacing" textLength="132.5215" x="1238.85" y="371.5451">M&#243;dulo Resultados</text></g><!--entity schema--><g class="entity" data-qualified-name="db_server.db.schema" data-source-line="28" id="ent0015"><rect fill="#F1F1F1" height="39.2969" rx="2.5" ry="2.5" style="stroke:#181818;stroke-width:0.5;" width="121.4922" x="1249.36" y="728.05"/><polygon fill="#F1F1F1" points="1353.8522,733.05,1353.8522,747.05,1365.8522,747.05,1365.8522,739.05,1359.8522,733.05,1353.8522,733.05" style="stroke:#181818;stroke-width:0.5;"/><line style="stroke:#181818;stroke-width:0.5;" x1="1359.8522" x2="1359.8522" y1="733.05" y2="739.05"/><line style="stroke:#181818;stroke-width:0.5;" x1="1365.8522" x2="1359.8522" y1="739.05" y2="739.05"/><text fill="#000000" font-family="sans-serif" font-size="14" lengthAdjust="spacing" textLength="91.4922" x="1259.36" y="754.0451">Schema SGO</text></g><!--entity network--><g class="entity" data-qualified-name="network" data-source-line="13" id="ent0005"><path d="M422.8297,192.6012 C427.903,186.0908 433.3227,186.974 436.5104,194.446 C440.9691,185.9414 445.6189,186.9768 451.2904,193.2314 C454.8848,186.236 459.1306,185.722 464.5678,191.2828 C468.8926,185.1559 474.0097,185.5135 478.2524,191.3765 C482.1271,185.8168 486.7892,185.2904 490.6163,191.4268 C494.716,184.0896 499.5222,183.6369 504.6125,190.4469 C508.8064,184.6944 513.039,184.8921 516.7717,190.9229 C520.8446,182.8106 527.1335,183.0768 531.5979,190.5504 C536.4371,184.7807 540.9388,184.2306 544.6652,191.6527 C548.1413,186.2932 554.1515,185.7825 557.7943,191.4542 C561.7619,184.9947 568.8388,186.0498 572.226,192.1227 C576.3969,186.4583 581.2779,185.2721 585.1619,192.4126 C590.2329,187.1074 595.5784,187.8382 598.8782,194.4511 C601.7912,188.8479 608.1175,187.0476 611.7063,193.7464 C622.9355,193.2919 626.8917,200.1927 621.0423,209.72 C624.7273,216.8492 622.038,222.8065 613.6199,223.3399 C610.8479,229.7818 604.2394,231.9143 599.3464,225.7395 C595.548,233.7851 588.9553,233.0681 584.4494,226.4587 C581.2881,232.854 574.7305,233.3282 571.2606,226.7731 C567.5037,232.2337 561.5098,232.9761 557.8868,226.6214 C554.036,232.4146 549.99,233.225 545.0179,227.9218 C541.5879,233.9309 536.1708,236.0759 531.3311,229.4486 C527.204,237.0157 520.7163,236.1139 517.0728,228.9797 C512.9494,233.8376 508.9836,234.6474 504.9686,228.8567 C500.6131,235.2644 494.9529,234.3046 491.4215,227.9798 C487.4255,235.2139 481.5896,234.4229 477.9989,227.5929 C472.9235,233.4034 467.2742,234.1591 463.1198,226.5702 C457.8634,231.7128 453.3912,231.4583 449.6042,224.8763 C445.3555,231.3183 440.6436,230.9025 436.0255,225.2925 C431.8979,231.5474 426.6872,230.882 422.7514,225.0812 C414.7226,220.3118 414.8182,213.7164 421.5624,207.9232 C415.4578,202.5031 416.2531,196.9724 422.8297,192.6012" fill="#F1F1F1" style="stroke:#181818;stroke-width:0.5;"/><text fill="#000000" font-family="sans-serif" font-size="14" lengthAdjust="spacing" textLength="174.6445" x="429.44" y="212.5451">Internet/Rede Mackenzie</text></g><g class="entity" data-qualified-name="GMN19" data-source-line="38" id="ent0020"><path d="M776.14,96 L776.14,151.3984 L1018.3622,151.3984 L1018.3622,106 L1008.3622,96 L776.14,96" fill="#FEFFDD" style="stroke:#181818;stroke-width:0.5;"/><path d="M1008.3622,96 L1008.3622,106 L1018.3622,106 L1008.3622,96" fill="#FEFFDD" style="stroke:#181818;stroke-width:1;"/><text fill="#000000" font-family="sans-serif" font-size="13" lengthAdjust="spacing" textLength="148.3066" x="782.14" y="113.0669">Desenvolvido em Java.</text><text fill="#000000" font-family="sans-serif" font-size="13" lengthAdjust="spacing" textLength="212.9448" x="782.14" y="128.1997">M&#243;dulos compartilham a mesma</text><text fill="#000000" font-family="sans-serif" font-size="13" lengthAdjust="spacing" textLength="221.2222" x="782.14" y="143.3325">mem&#243;ria e conex&#227;o com o banco.</text></g><g class="entity" data-qualified-name="GMN22" data-source-line="44" id="ent0023"><path d="M798.86,6 L798.86,61.3984 L995.6393,61.3984 L995.6393,16 L985.6393,6 L798.86,6" fill="#FEFFDD" style="stroke:#181818;stroke-width:0.5;"/><path d="M985.6393,6 L985.6393,16 L995.6393,16 L985.6393,6" fill="#FEFFDD" style="stroke:#181818;stroke-width:1;"/><text fill="#000000" font-family="sans-serif" font-size="13" lengthAdjust="spacing" textLength="160.6401" x="804.86" y="23.0669">Arquitetura simplificada:</text><text fill="#000000" font-family="sans-serif" font-size="13" lengthAdjust="spacing" textLength="175.7793" x="804.86" y="38.1997">Menor lat&#234;ncia e facilidade</text><text fill="#000000" font-family="sans-serif" font-size="13" lengthAdjust="spacing" textLength="172.5864" x="804.86" y="53.3325">de deploy para o trabalho.</text></g><!--link browser to network--><g class="link" data-entity-1="ent0003" data-entity-2="ent0005" data-link-type="association" data-source-line="33" id="lnk16"><path d="M294.4398,207.7 C307.5353,207.7 321.0472,207.7 334.635,207.7 C361.8106,207.7 389.29,207.7 414.35,207.7" fill="none" id="browser-network" style="stroke:#181818;stroke-width:1;"/><text fill="#000000" font-family="sans-serif" font-size="13" lengthAdjust="spacing" textLength="41.7485" x="342.44" y="203.7669">HTTPS</text></g><!--link network to server--><g class="link" data-entity-1="ent0005" data-entity-2="ent0006" data-link-type="association" data-source-line="34" id="lnk17"><path d="M619.19,207.7 C646.78,207.7 677.57,207.7 708.3141,207.7 C710.2356,207.7 712.1569,207.7 714.0772,207.7 C714.5573,207.7 715.0374,207.7 715.5173,207.7" fill="none" id="network-server" style="stroke:#181818;stroke-width:1;"/><text fill="#000000" font-family="sans-serif" font-size="13" lengthAdjust="spacing" textLength="41.7485" x="650.08" y="203.7669">HTTPS</text></g><!--link artifact to db_server--><g class="link" data-entity-1="ent0008" data-entity-2="ent0013" data-link-type="association" data-source-line="35" id="lnk18"><path d="M922.0474,510.04 C923.6256,510.5931 925.2725,511.1702 926.9852,511.7704 C930.4106,512.9708 934.0991,514.2635 938.0269,515.6399 C945.8823,518.3929 954.6947,521.4813 964.2725,524.838 C1002.5838,538.2647 1053.1425,555.9844 1103.7,573.7038 C1128.9788,582.5634 1154.2572,591.423 1178.0042,599.7459 C1189.8777,603.9074 1201.3684,607.9346 1212.2848,611.7606 C1213.6494,612.2388 1215.005,612.7139 1216.3512,613.1858 C1216.6878,613.3037 1217.0237,613.4215 1217.3591,613.539" fill="none" id="artifact-db_server" style="stroke:#181818;stroke-width:1;"/><text fill="#000000" font-family="sans-serif" font-size="13" lengthAdjust="spacing" textLength="87.0264" x="1049.36" y="552.7669">JDBC (TCP/IP)</text></g><!--link artifact to GMN19--><g class="link" data-entity-1="ent0008" data-entity-2="ent0020" data-link-type="association" data-source-line="38" id="lnk21"><path d="M861.029,509.7896 C860.7387,509.8417 860.4471,509.8938 860.1542,509.9459 C859.5684,510.05 858.9773,510.1538 858.3811,510.2574 C857.1888,510.4646 855.9759,510.6707 854.7435,510.875 C852.2788,511.2837 849.7362,511.6852 847.1237,512.0744 C841.8988,512.8528 836.3947,513.5819 830.676,514.2199 C819.2387,515.4959 806.9434,516.4075 794.3088,516.62 C743.77,517.47 687.8,507.135 659.58,464.2 C625.53,412.39 625.53,237.01 659.58,185.2 C684.81,146.82 730.9,129.86 775.83,123.08" fill="none" id="artifact-GMN19" style="stroke:#181818;stroke-width:1;stroke-dasharray:7,7;"/></g><!--link GMN22 to server--><g class="link" data-entity-1="ent0023" data-entity-2="ent0006" data-link-type="association" data-source-line="44" id="lnk24"><path d="M798.48,30.93 C747.15,35.43 689.11,51.28 659.58,96.2 C646.16,116.63 646.16,130.77 659.58,151.2 C666.7438,162.0988 675.6156,171.1944 685.6819,178.7628 C690.7151,182.547 696.0469,185.9495 701.613,189.0046 C704.3961,190.5321 707.2378,191.9729 710.13,193.3311 C711.5761,194.0102 713.0349,194.6687 714.5053,195.3071 C714.8729,195.4667 715.2413,195.625 715.6103,195.7821" fill="none" id="GMN22-server" style="stroke:#181818;stroke-width:1;stroke-dasharray:7,7;"/></g><?plantuml-src XLJBRjim4BphAnQwr3dOlWT103_I9aRSkfQB7WDQNDjCIAvAKahQ8XzJz52Wrw1Vu1_hKfBbFWA49sbtPcUuIrBZ9a0WS6gx2o2Lmpmeiec_KxOGJXYm916-9i1hBFAxhQFIoWbfSl1nfm8s6N8INHCTQuObZqbICzEfyWLv5LH580a--7B_pIbAGNZ8jK8RskeD_AseS2jah8xh6hHsTE_HjQYuX0jg8_80wMj7Dg2LqBjSpQ-7ismuoRAJchPfKpNhCVh9DPKIqYiEEujXk4GMdBDPj5yKrYGEtvExEtZFq5KgUk6VKQ5LBlO_zjy9UjVAbW_3IIpOgB71glFOa6UY4h0iRL06uS9MYWsPkDtUR7dHi6uhy-os_9RweYW6jyB1sTcSB6d5GvgJBBLmv-SrkOCVAyILaod8HfrqldzY0i64GnWKU_-5lkOQaZSH-1BpolhS_KjK77o9EDBKDgkZ2GwzH5kYBtNWyH_L7EgEzNWSvly36WkRK_oOTdovllbhC584iHQUYGloOUimUt_T0f-TGvRlq0Z8thnhXbp_7ZsyYfqjRNCik4F9uQZs-uUJ1AUGNgvMYonD3X5EjgQEkKwIaqVJd9zDnnFehIQBuTNY98tR3WXh2e4CqAQpofwcwD5Mf6C_00t4upVWUDjQNxSxulMERxK0WvwtnW23Pl_ab01aYCM7UC3pM1xMiQE39DwlgDkg1ogYTEEH-IFtgUHt89HEW5U6hyc6EoB5QHH7oyFH8kn_shoMOBTAAobaV3XuM18BJPyXlZMi61pFH-_-4FqD?></g></svg>
